<?xml version="1.0" encoding="UTF-8"?>
<svg xmlns="http://www.w3.org/2000/svg" xmlns:xlink="http://www.w3.org/1999/xlink" width="24px" height="24px" viewBox="0 0 24 24" version="1.1">
<g id="surface1">
<path style=" stroke:none;fill-rule:nonzero;fill:rgb(39.215686%,25.490196%,64.705882%);fill-opacity:1;" d="M 24 12 C 24 18.628906 18.628906 24 12 24 C 5.371094 24 0 18.628906 0 12 C 0 5.371094 5.371094 0 12 0 C 18.628906 0 24 5.371094 24 12 Z M 24 12 "/>
<path style=" stroke:none;fill-rule:nonzero;fill:rgb(100%,100%,100%);fill-opacity:1;" d="M 12 8.882812 L 12 12.796875 L 10.691406 12.796875 L 10.691406 8.882812 Z M 15.585938 8.882812 L 15.585938 12.796875 L 14.277344 12.796875 L 14.277344 8.882812 Z M 15.585938 15.730469 L 17.867188 13.445312 L 17.867188 6.277344 L 7.105469 6.277344 L 7.105469 15.730469 L 10.046875 15.730469 L 10.046875 17.6875 L 12 15.730469 Z M 19.175781 4.96875 L 19.175781 14.101562 L 15.261719 18.015625 L 12.324219 18.015625 L 10.367188 19.96875 L 8.414062 19.96875 L 8.414062 18.015625 L 4.828125 18.015625 L 4.828125 7.574219 L 5.8125 4.96875 C 5.8125 4.96875 19.175781 4.96875 19.175781 4.96875 Z M 19.175781 4.96875 "/>
</g>
</svg>
